<?xml version="1.0" encoding="UTF-8"?>
<svg width="1200" height="630" viewBox="0 0 1200 630" xmlns="http://www.w3.org/2000/svg">
  <rect width="1200" height="630" fill="#0b0f14"/>
  <!-- 背景网格 -->
  <line x1="0" y1="157" x2="1200" y2="157" stroke="#151c24" stroke-width="1"/>
  <line x1="0" y1="315" x2="1200" y2="315" stroke="#151c24" stroke-width="1"/>
  <line x1="0" y1="472" x2="1200" y2="472" stroke="#151c24" stroke-width="1"/>
  <line x1="300" y1="0" x2="300" y2="630" stroke="#151c24" stroke-width="1"/>
  <line x1="600" y1="0" x2="600" y2="630" stroke="#151c24" stroke-width="1"/>
  <line x1="900" y1="0" x2="900" y2="630" stroke="#151c24" stroke-width="1"/>

  <!-- 右上：向量空间装饰 -->
  <circle cx="1010" cy="150" r="4" fill="#22d3ee" opacity="0.8"/>
  <circle cx="1075" cy="118" r="3" fill="#22d3ee" opacity="0.5"/>
  <circle cx="960" cy="205" r="3" fill="#22d3ee" opacity="0.5"/>
  <circle cx="1105" cy="196" r="5" fill="#38bdf8" opacity="0.7"/>
  <circle cx="1040" cy="238" r="3" fill="#22d3ee" opacity="0.4"/>
  <line x1="1010" y1="150" x2="1075" y2="118" stroke="#22d3ee" stroke-width="0.8" opacity="0.3"/>
  <line x1="1010" y1="150" x2="960" y2="205" stroke="#22d3ee" stroke-width="0.8" opacity="0.3"/>
  <line x1="1010" y1="150" x2="1105" y2="196" stroke="#22d3ee" stroke-width="0.8" opacity="0.3"/>
  <line x1="1010" y1="150" x2="1040" y2="238" stroke="#22d3ee" stroke-width="0.8" opacity="0.3"/>

  <!-- 标题区 -->
  <rect x="80" y="120" width="50" height="4" fill="#22d3ee"/>
  <text x="80" y="184" font-family="sans-serif" font-size="52" font-weight="bold" fill="#f2f5f7">RAG 全链路拆解</text>
  <text x="80" y="238" font-family="sans-serif" font-size="26" fill="#67e8f9">你真的了解 RAG 吗？</text>
  <text x="80" y="282" font-family="monospace" font-size="16" fill="#5b6875">Retrieval — Augmented — Generation</text>

  <!-- 管线 -->
  <rect x="80" y="336" width="118" height="40" rx="8" fill="none" stroke="#22d3ee" stroke-width="1.5"/>
  <text x="139" y="362" font-family="monospace" font-size="13" fill="#a5f3fc" text-anchor="middle">Chunking</text>
  <line x1="198" y1="356" x2="228" y2="356" stroke="#334955" stroke-width="1.5"/>

  <rect x="228" y="336" width="128" height="40" rx="8" fill="none" stroke="#22d3ee" stroke-width="1.5"/>
  <text x="292" y="362" font-family="monospace" font-size="13" fill="#a5f3fc" text-anchor="middle">Embedding</text>
  <line x1="356" y1="356" x2="386" y2="356" stroke="#334955" stroke-width="1.5"/>

  <rect x="386" y="336" width="108" height="40" rx="8" fill="none" stroke="#22d3ee" stroke-width="1.5"/>
  <text x="440" y="362" font-family="monospace" font-size="13" fill="#a5f3fc" text-anchor="middle">Index</text>
  <line x1="494" y1="356" x2="524" y2="356" stroke="#334955" stroke-width="1.5"/>

  <rect x="524" y="336" width="122" height="40" rx="8" fill="none" stroke="#22d3ee" stroke-width="1.5"/>
  <text x="585" y="362" font-family="monospace" font-size="13" fill="#a5f3fc" text-anchor="middle">Retrieval</text>
  <line x1="646" y1="356" x2="676" y2="356" stroke="#334955" stroke-width="1.5"/>

  <rect x="676" y="336" width="110" height="40" rx="8" fill="none" stroke="#38bdf8" stroke-width="1.5"/>
  <text x="731" y="362" font-family="monospace" font-size="13" fill="#bae6fd" text-anchor="middle">Rerank</text>
  <line x1="786" y1="356" x2="816" y2="356" stroke="#334955" stroke-width="1.5"/>

  <rect x="816" y="336" width="96" height="40" rx="8" fill="#0e7490" opacity="0.35"/>
  <rect x="816" y="336" width="96" height="40" rx="8" fill="none" stroke="#38bdf8" stroke-width="1.5"/>
  <text x="864" y="362" font-family="monospace" font-size="13" fill="#e0f2fe" text-anchor="middle">LLM</text>

  <!-- 关键词标签 -->
  <text x="80" y="440" font-family="monospace" font-size="14" fill="#64748b">BM25 · HNSW · IVF · 倒排索引 · HyDE · 混合检索 · 图式 RAG</text>

  <!-- 底部 -->
  <text x="80" y="536" font-family="sans-serif" font-size="20" fill="#94a3b8">从切分到生成，把每一环拆开讲清楚</text>
  <text x="80" y="572" font-family="monospace" font-size="14" fill="#475569">附：为什么「RAG 已死」是个伪命题</text>
  <rect x="0" y="620" width="1200" height="10" fill="#22d3ee" opacity="0.5"/>
</svg>
